<svg xmlns="http://www.w3.org/2000/svg" xmlns:xlink="http://www.w3.org/1999/xlink" width="1920" zoomAndPan="magnify" viewBox="0 0 1440 809.999993" height="1080" preserveAspectRatio="xMidYMid meet" version="1.0"><defs><filter x="0%" y="0%" width="100%" height="100%" id="86089ee75a"><feColorMatrix values="0 0 0 0 1 0 0 0 0 1 0 0 0 0 1 0 0 0 1 0" color-interpolation-filters="sRGB"/></filter><g/><mask id="9973c874eb"><g filter="url(#86089ee75a)"><rect x="-144" width="1728" fill="#000000" y="-80.999999" height="971.999992" fill-opacity="0.3"/></g></mask><clipPath id="e1e8955ef6"><rect x="0" width="329" y="0" height="326"/></clipPath></defs><rect x="-144" width="1728" fill="#ffffff" y="-80.999999" height="971.999992" fill-opacity="1"/><rect x="-144" width="1728" fill="#a5e2ff" y="-80.999999" height="971.999992" fill-opacity="1"/><g mask="url(#9973c874eb)"><g transform="matrix(1, 0, 0, 1, 556, 242)"><g clip-path="url(#e1e8955ef6)"><path fill="#000000" d="M 325.179688 246.378906 C 322.992188 239.800781 317.988281 234.621094 311.457031 232.167969 L 243.097656 206.5 C 236.125 203.882812 228.84375 204.671875 222.589844 208.722656 L 199.566406 223.644531 C 195.246094 226.445312 190.070312 226.472656 185.722656 223.71875 C 169.578125 213.503906 154.5 201.410156 140.90625 187.78125 C 140.902344 187.777344 140.902344 187.773438 140.898438 187.773438 C 127.28125 174.167969 115.199219 159.074219 104.988281 142.917969 C 102.238281 138.566406 102.265625 133.386719 105.0625 129.0625 L 119.972656 106.023438 C 124.023438 99.765625 124.808594 92.472656 122.191406 85.496094 L 96.546875 17.082031 C 94.09375 10.542969 88.917969 5.539062 82.347656 3.34375 C 75.773438 1.152344 68.632812 2.050781 62.753906 5.8125 L 26.96875 28.691406 C 8.859375 40.273438 0.382812 61.273438 5.371094 82.191406 C 19.210938 140.238281 49.34375 193.511719 92.46875 236.210938 C 135.171875 279.414062 188.402344 309.570312 246.402344 323.421875 C 250.378906 324.371094 254.363281 324.832031 258.28125 324.832031 C 274.949219 324.832031 290.488281 316.476562 299.855469 301.800781 L 322.714844 265.992188 C 326.472656 260.105469 327.371094 252.957031 325.179688 246.378906 Z M 314.226562 260.5625 L 291.363281 296.375 C 282.136719 310.828125 265.40625 317.59375 248.738281 313.613281 C 192.570312 300.199219 141.007812 270.980469 99.589844 229.082031 C 57.765625 187.667969 28.574219 136.066406 15.167969 79.851562 C 11.191406 63.167969 17.953125 46.425781 32.394531 37.191406 L 68.175781 14.308594 C 70.300781 12.953125 72.710938 12.257812 75.136719 12.257812 C 76.488281 12.257812 77.847656 12.472656 79.164062 12.910156 C 82.835938 14.136719 85.734375 16.949219 87.113281 20.625 L 112.761719 89.039062 C 114.25 93.007812 113.820312 96.984375 111.519531 100.539062 L 96.605469 123.582031 C 91.691406 131.179688 91.636719 140.65625 96.472656 148.308594 C 107.082031 165.09375 119.632812 180.773438 133.78125 194.90625 C 147.902344 209.0625 163.566406 221.625 180.339844 232.242188 C 187.984375 237.082031 197.453125 237.03125 205.046875 232.109375 L 228.066406 217.1875 C 231.621094 214.882812 235.59375 214.453125 239.558594 215.941406 L 307.917969 241.609375 C 311.589844 242.988281 314.398438 245.890625 315.625 249.566406 C 316.847656 253.246094 316.339844 257.253906 314.226562 260.5625 Z M 314.226562 260.5625 " fill-opacity="1" fill-rule="nonzero"/></g></g></g><g fill="#051d40" fill-opacity="1"><g transform="translate(534.175673, 142.279739)"><g><path d="M 0.5625 -46.671875 L 0.5625 -58.34375 L 41.578125 -58.34375 L 41.578125 -46.671875 L 27.71875 -46.671875 L 27.71875 0 L 14.421875 0 L 14.421875 -46.671875 Z M 0.5625 -46.671875 "/></g></g></g><g fill="#051d40" fill-opacity="1"><g transform="translate(569.664121, 142.279739)"><g><path d="M 7.671875 -4.3125 C 3.640625 -7.894531 1.625 -12.488281 1.625 -18.09375 C 1.625 -23.707031 3.722656 -28.316406 7.921875 -31.921875 C 12.117188 -35.535156 17.304688 -37.34375 23.484375 -37.34375 C 29.554688 -37.34375 34.679688 -35.523438 38.859375 -31.890625 C 43.035156 -28.265625 45.125 -23.671875 45.125 -18.109375 C 45.125 -12.546875 43.082031 -7.957031 39 -4.34375 C 34.925781 -0.738281 29.753906 1.0625 23.484375 1.0625 C 16.972656 1.0625 11.703125 -0.726562 7.671875 -4.3125 Z M 17.359375 -24.25 C 15.734375 -22.65625 14.921875 -20.609375 14.921875 -18.109375 C 14.921875 -15.609375 15.695312 -13.566406 17.25 -11.984375 C 18.8125 -10.410156 20.863281 -9.625 23.40625 -9.625 C 25.851562 -9.625 27.867188 -10.421875 29.453125 -12.015625 C 31.035156 -13.617188 31.828125 -15.648438 31.828125 -18.109375 C 31.828125 -20.609375 31.007812 -22.65625 29.375 -24.25 C 27.75 -25.851562 25.757812 -26.65625 23.40625 -26.65625 C 21 -26.65625 18.984375 -25.851562 17.359375 -24.25 Z M 17.359375 -24.25 "/></g></g></g><g fill="#051d40" fill-opacity="1"><g transform="translate(609.747939, 142.279739)"><g><path d="M 4.25 -25.890625 L 27.015625 -25.890625 L 27.015625 -15.0625 L 4.25 -15.0625 Z M 4.25 -25.890625 "/></g></g></g><g fill="#051d40" fill-opacity="1"><g transform="translate(634.348901, 142.279739)"><g><path d="M 35.28125 -12.015625 C 37.3125 -12.015625 39.28125 -12.320312 41.1875 -12.9375 C 43.101562 -13.550781 44.507812 -14.140625 45.40625 -14.703125 L 46.75 -15.625 L 52.40625 -4.3125 C 52.21875 -4.175781 51.957031 -3.988281 51.625 -3.75 C 51.289062 -3.507812 50.519531 -3.070312 49.3125 -2.4375 C 48.113281 -1.800781 46.832031 -1.25 45.46875 -0.78125 C 44.101562 -0.3125 42.3125 0.109375 40.09375 0.484375 C 37.882812 0.867188 35.597656 1.0625 33.234375 1.0625 C 27.816406 1.0625 22.675781 -0.269531 17.8125 -2.9375 C 12.957031 -5.601562 9.046875 -9.269531 6.078125 -13.9375 C 3.109375 -18.601562 1.625 -23.644531 1.625 -29.0625 C 1.625 -33.164062 2.492188 -37.101562 4.234375 -40.875 C 5.984375 -44.644531 8.304688 -47.875 11.203125 -50.5625 C 14.109375 -53.25 17.492188 -55.394531 21.359375 -57 C 25.222656 -58.601562 29.179688 -59.40625 33.234375 -59.40625 C 37.003906 -59.40625 40.476562 -58.957031 43.65625 -58.0625 C 46.84375 -57.164062 49.097656 -56.269531 50.421875 -55.375 L 52.40625 -54.03125 L 46.75 -42.71875 C 46.414062 -43 45.914062 -43.335938 45.25 -43.734375 C 44.59375 -44.140625 43.273438 -44.671875 41.296875 -45.328125 C 39.316406 -45.992188 37.3125 -46.328125 35.28125 -46.328125 C 32.082031 -46.328125 29.207031 -45.804688 26.65625 -44.765625 C 24.113281 -43.722656 22.097656 -42.351562 20.609375 -40.65625 C 19.128906 -38.96875 18 -37.144531 17.21875 -35.1875 C 16.4375 -33.226562 16.046875 -31.234375 16.046875 -29.203125 C 16.046875 -24.773438 17.707031 -20.800781 21.03125 -17.28125 C 24.363281 -13.769531 29.113281 -12.015625 35.28125 -12.015625 Z M 35.28125 -12.015625 "/></g></g></g><g fill="#051d40" fill-opacity="1"><g transform="translate(680.936934, 142.279739)"><g><path d="M 7.671875 -4.3125 C 3.640625 -7.894531 1.625 -12.488281 1.625 -18.09375 C 1.625 -23.707031 3.722656 -28.316406 7.921875 -31.921875 C 12.117188 -35.535156 17.304688 -37.34375 23.484375 -37.34375 C 29.554688 -37.34375 34.679688 -35.523438 38.859375 -31.890625 C 43.035156 -28.265625 45.125 -23.671875 45.125 -18.109375 C 45.125 -12.546875 43.082031 -7.957031 39 -4.34375 C 34.925781 -0.738281 29.753906 1.0625 23.484375 1.0625 C 16.972656 1.0625 11.703125 -0.726562 7.671875 -4.3125 Z M 17.359375 -24.25 C 15.734375 -22.65625 14.921875 -20.609375 14.921875 -18.109375 C 14.921875 -15.609375 15.695312 -13.566406 17.25 -11.984375 C 18.8125 -10.410156 20.863281 -9.625 23.40625 -9.625 C 25.851562 -9.625 27.867188 -10.421875 29.453125 -12.015625 C 31.035156 -13.617188 31.828125 -15.648438 31.828125 -18.109375 C 31.828125 -20.609375 31.007812 -22.65625 29.375 -24.25 C 27.75 -25.851562 25.757812 -26.65625 23.40625 -26.65625 C 21 -26.65625 18.984375 -25.851562 17.359375 -24.25 Z M 17.359375 -24.25 "/></g></g></g><g fill="#051d40" fill-opacity="1"><g transform="translate(721.020746, 142.279739)"><g><path d="M 4.25 0 L 4.25 -36.28125 L 16.765625 -36.28125 L 16.765625 -32.453125 L 16.90625 -32.453125 C 20.15625 -35.710938 23.617188 -37.34375 27.296875 -37.34375 C 29.085938 -37.34375 30.863281 -37.101562 32.625 -36.625 C 34.394531 -36.15625 36.09375 -35.425781 37.71875 -34.4375 C 39.351562 -33.445312 40.675781 -32.046875 41.6875 -30.234375 C 42.695312 -28.421875 43.203125 -26.3125 43.203125 -23.90625 L 43.203125 0 L 30.6875 0 L 30.6875 -20.515625 C 30.6875 -22.398438 30.082031 -24.046875 28.875 -25.453125 C 27.675781 -26.867188 26.113281 -27.578125 24.1875 -27.578125 C 22.300781 -27.578125 20.59375 -26.847656 19.0625 -25.390625 C 17.53125 -23.929688 16.765625 -22.304688 16.765625 -20.515625 L 16.765625 0 Z M 4.25 0 "/></g></g></g><g fill="#051d40" fill-opacity="1"><g transform="translate(761.104572, 142.279739)"><g><path d="M 4.25 0 L 4.25 -36.28125 L 16.765625 -36.28125 L 16.765625 -32.453125 L 16.90625 -32.453125 C 20.15625 -35.710938 23.617188 -37.34375 27.296875 -37.34375 C 29.085938 -37.34375 30.863281 -37.101562 32.625 -36.625 C 34.394531 -36.15625 36.09375 -35.425781 37.71875 -34.4375 C 39.351562 -33.445312 40.675781 -32.046875 41.6875 -30.234375 C 42.695312 -28.421875 43.203125 -26.3125 43.203125 -23.90625 L 43.203125 0 L 30.6875 0 L 30.6875 -20.515625 C 30.6875 -22.398438 30.082031 -24.046875 28.875 -25.453125 C 27.675781 -26.867188 26.113281 -27.578125 24.1875 -27.578125 C 22.300781 -27.578125 20.59375 -26.847656 19.0625 -25.390625 C 17.53125 -23.929688 16.765625 -22.304688 16.765625 -20.515625 L 16.765625 0 Z M 4.25 0 "/></g></g></g><g fill="#051d40" fill-opacity="1"><g transform="translate(801.188399, 142.279739)"><g><path d="M 40.953125 -16.40625 L 14.640625 -16.40625 C 14.640625 -13.863281 15.460938 -11.976562 17.109375 -10.75 C 18.765625 -9.519531 20.554688 -8.90625 22.484375 -8.90625 C 24.515625 -8.90625 26.117188 -9.175781 27.296875 -9.71875 C 28.472656 -10.257812 29.816406 -11.332031 31.328125 -12.9375 L 40.375 -8.421875 C 36.601562 -2.097656 30.332031 1.0625 21.5625 1.0625 C 16.09375 1.0625 11.398438 -0.8125 7.484375 -4.5625 C 3.578125 -8.3125 1.625 -12.828125 1.625 -18.109375 C 1.625 -23.390625 3.578125 -27.914062 7.484375 -31.6875 C 11.398438 -35.457031 16.09375 -37.34375 21.5625 -37.34375 C 27.320312 -37.34375 32.003906 -35.679688 35.609375 -32.359375 C 39.210938 -29.035156 41.015625 -24.285156 41.015625 -18.109375 C 41.015625 -17.253906 40.992188 -16.6875 40.953125 -16.40625 Z M 15 -23.34375 L 28.78125 -23.34375 C 28.5 -25.226562 27.753906 -26.675781 26.546875 -27.6875 C 25.347656 -28.695312 23.804688 -29.203125 21.921875 -29.203125 C 19.847656 -29.203125 18.195312 -28.660156 16.96875 -27.578125 C 15.75 -26.492188 15.09375 -25.082031 15 -23.34375 Z M 15 -23.34375 "/></g></g></g><g fill="#051d40" fill-opacity="1"><g transform="translate(837.17174, 142.279739)"><g><path d="M 23.546875 -27.078125 C 21.191406 -27.078125 19.164062 -26.207031 17.46875 -24.46875 C 15.769531 -22.726562 14.921875 -20.628906 14.921875 -18.171875 C 14.921875 -15.671875 15.769531 -13.546875 17.46875 -11.796875 C 19.164062 -10.054688 21.191406 -9.1875 23.546875 -9.1875 C 24.679688 -9.1875 25.753906 -9.328125 26.765625 -9.609375 C 27.773438 -9.898438 28.519531 -10.1875 29 -10.46875 L 29.625 -10.890625 L 33.875 -2.1875 C 33.539062 -1.957031 33.078125 -1.664062 32.484375 -1.3125 C 31.898438 -0.957031 30.554688 -0.472656 28.453125 0.140625 C 26.359375 0.753906 24.109375 1.0625 21.703125 1.0625 C 16.378906 1.0625 11.703125 -0.8125 7.671875 -4.5625 C 3.640625 -8.3125 1.625 -12.800781 1.625 -18.03125 C 1.625 -23.3125 3.640625 -27.847656 7.671875 -31.640625 C 11.703125 -35.441406 16.378906 -37.34375 21.703125 -37.34375 C 24.109375 -37.34375 26.328125 -37.054688 28.359375 -36.484375 C 30.390625 -35.921875 31.828125 -35.359375 32.671875 -34.796875 L 33.875 -33.9375 L 29.625 -25.390625 C 28.070312 -26.515625 26.046875 -27.078125 23.546875 -27.078125 Z M 23.546875 -27.078125 "/></g></g></g><g fill="#051d40" fill-opacity="1"><g transform="translate(865.236909, 142.279739)"><g><path d="M 6.359375 -36.28125 L 6.359375 -49.78125 L 18.875 -49.78125 L 18.875 -36.28125 L 26.515625 -36.28125 L 26.515625 -26.734375 L 18.875 -26.734375 L 18.875 -15.203125 C 18.875 -11.859375 19.816406 -10.1875 21.703125 -10.1875 C 22.179688 -10.1875 22.675781 -10.28125 23.1875 -10.46875 C 23.707031 -10.65625 24.109375 -10.84375 24.390625 -11.03125 L 24.828125 -11.3125 L 27.9375 -1.203125 C 25.25 0.304688 22.179688 1.0625 18.734375 1.0625 C 16.378906 1.0625 14.351562 0.648438 12.65625 -0.171875 C 10.957031 -1.003906 9.671875 -2.113281 8.796875 -3.5 C 7.929688 -4.894531 7.304688 -6.359375 6.921875 -7.890625 C 6.546875 -9.421875 6.359375 -11.054688 6.359375 -12.796875 L 6.359375 -26.734375 L 1.125 -26.734375 L 1.125 -36.28125 Z M 6.359375 -36.28125 "/></g></g></g><g fill="#051d40" fill-opacity="1"><g transform="translate(886.516446, 142.279739)"><g/></g></g></svg>